# AST/ASF file generated using VICON BodyLanguage
# -----------------------------------------------
:version 1.10
:name VICON
:units
  mass 1.0
  length 0.45
  angle deg
:documentation
   .ast/.asf automatically generated from VICON data using
   VICON BodyBuilder and BodyLanguage model FoxedUp or BRILLIANT.MOD
:root
   order TX TY TZ RX RY RZ
   axis XYZ
   position 0 0 0  
   orientation 0 0 0 
:bonedata
  begin
     id 1 
     name lhipjoint
     direction 0.62366 -0.717238 0.310833 
     length 2.53602 
     axis 0 0 0  XYZ
  end
  begin
     id 2 
     name lfemur
     direction 0.34202 -0.939693 0  
     length 7.40817  
     axis 0 0 20  XYZ
    dof rx ry rz
    limits (-160.0 20.0)
           (-70.0 70.0)
           (-60.0 70.0)
  end
  begin
     id 3 
     name ltibia
     direction 0.34202 -0.939693 0   
     length 7.7045   
     axis 0 0 20   XYZ
    dof rx
    limits (-10.0 170.0)
  end
  begin
     id 4 
     name lfoot
     direction 0.0673888 -0.185149 0.980397   
     length 2.09456   
     axis -90 7.62852e-016 20   XYZ
    dof rx rz
    limits (-45.0 90.0)
           (-70.0 20.0)
  end
  begin
     id 5 
     name ltoes
     direction 1.53575e-011 -4.21994e-011 1   
     length 1.05543   
     axis -90 7.62852e-016 20   XYZ
    dof rx
    limits (-90.0 20.0)
  end
  begin
     id 6 
     name rhipjoint
     direction -0.489018 -0.800347 0.346851   
     length 2.27268  
     axis 0 0 0  XYZ 
  end
  begin
     id 7 
     name rfemur
     direction -0.34202 -0.939693 0   
     length 7.55487   
     axis 0 0 -20   XYZ
    dof rx ry rz
    limits (-160.0 20.0)
           (-70.0 70.0)
           (-70.0 60.0)
  end
  begin
     id 8 
     name rtibia
     direction -0.34202 -0.939693 0   
     length 7.78969   
     axis 0 0 -20   XYZ
    dof rx
    limits (-10.0 170.0)
 end
 begin
     id 9 
     name rfoot
     direction -0.0859318 -0.236096 0.967923   
     length 2.19143  
     axis -90 -7.62852e-016 -20   XYZ
    dof rx rz
    limits (-45.0 90.0)
           (-20.0 70.0)
  end
  begin
     id 10 
     name rtoes
     direction -1.53538e-011 -4.21989e-011 1   
     length 1.09845   
     axis -90 -7.62852e-016 -20   XYZ
    dof rx
    limits (-90.0 20.0)
  end
  begin
     id 11 
     name lowerback
     direction -0.00762546 0.998978 -0.0445553   
     length 1.98161   
     axis 0 0 0   XYZ
    dof rx ry rz
    limits (-20.0 45.0)
           (-30.0 30.0)
           (-30.0 30.0)
  end
  begin
     id 12 
     name upperback
     direction 0.0422361 0.998867 -0.0219156   
     length 1.97558   
     axis 0 0 0   XYZ
    dof rx ry rz
    limits (-20.0 45.0)
           (-30.0 30.0)
           (-30.0 30.0)
  end
  begin
     id 13 
     name thorax
     direction 0.0442465 0.999021 7.47603e-005   
     length 1.97799   
     axis 0 0 0   XYZ
    dof rx ry rz
    limits (-20.0 45.0)
           (-30.0 30.0)
           (-30.0 30.0)
  end
  begin
     id 14 
     name lowerneck
     direction 0.00312169 0.984641 0.174564   
     length 1.78995   
     axis 0 0 0   XYZ
    dof rx ry rz
    limits (-20.0 45.0)
           (-30.0 30.0)
           (-30.0 30.0)
  end
  begin
     id 15 
     name upperneck
     direction -0.0383028 0.985255 -0.166749   
     length 1.83053   
     axis 0 0 0   XYZ
    dof rx ry rz
    limits (-20.0 45.0)
           (-30.0 30.0)
           (-30.0 30.0)
  end
  begin
     id 16
     name head
     direction -0.0129546 0.997059 -0.0755386  
     length 1.84088  
     axis 0 0 0   XYZ
    dof rx ry rz
    limits (-20.0 45.0)
           (-30.0 30.0)
           (-30.0 30.0)
  end
  begin
     id 17 
     name lclavicle
     direction 0.912857 0.370519 -0.171488  
     length 3.51279  
     axis 0 0 0   XYZ
    dof ry rz
    limits (-20.0 10.0)
           (0.0 20.0)
  end
  begin
     id 18 
     name lhumerus
     direction 1 -4.48962e-011 3.64361e-027   
     length 4.95663   
     axis 180 -30 -90   XYZ
    dof rx ry rz
    limits (-60.0 90.0)
           (-90.0 90.0)
           (-90.0 90.0)
  end
  begin
     id 19
     name lradius
     direction 1 -4.48974e-011 5.97202e-027   
     length 3.38177   
     axis 180 -30 -90   XYZ
    dof rx
    limits (-10.0 170.0)
  end
  begin
     id 20
     name lwrist
     direction 1 -4.4896e-011 9.83288e-027   
     length 1.69088   
     axis -9.31221e-015 90 90   XYZ
    dof ry
    limits (-180.0 0.0)
 end
  begin
     id 21 
     name lhand
     direction 1 -4.4902e-011 1.96551e-026   
     length 0.662909   
     axis -1.25475e-014 90 90   XYZ
    dof rx rz
    limits (-90.0 90.0)
           (-45.0 45.0)
  end
  begin
     id 22 
     name lfingers
     direction 1 -4.48971e-011 3.93277e-026   
     length 0.534454   
     axis -2.50945e-014 90 90   XYZ
    dof rx
    limits (0.0 90.0)
  end
  begin
     id 23
     name lthumb
     direction 0.707107 -6.34933e-011 0.707107   
     length 0.767373   
     axis -90 45 -4.80359e-014   XYZ
    dof rx rz
    limits (-45.0 45.0)
           (-45.0 45.0)
  end
  begin
     id 24 
     name rclavicle
     direction -0.900919 0.395364 -0.178976   
     length 3.40627  
     axis 0 0 0   XYZ 
    dof ry rz
    limits (-10.0 20.0)
           (-20.0 0.0)
  end
  begin
     id 25 
     name rhumerus
     direction -1 -4.48969e-011 1.03875e-027  
     length 5.08365   
     axis 180 30 90   XYZ
    dof rx ry rz
    limits (-90.0 60.0)
           (-90.0 90.0)
           (-90.0 90.0)
  end
  begin
     id 26 
     name rradius
     direction -1 -4.48951e-011 5.02733e-027   
     length 3.35984   
     axis 180 30 90   XYZ
    dof rx
    limits (-10.0 170.0)
  end
  begin
     id 27 
     name rwrist
     direction -1 -4.49011e-011 9.82828e-027   
     length 1.67992   
     axis -9.31221e-015 -90 -90   XYZ
    dof ry
    limits (-180.0 0.0)
  end
  begin
     id 28
     name rhand
     direction -1 -4.48894e-011 1.96774e-026   
     length 0.820764   
     axis -1.25475e-014 -90 -90   XYZ
    dof rx rz
    limits (-90.0 90.0)
           (-45.0 45.0)
  end
  begin
     id 29
     name rfingers
     direction -1 -4.49095e-011 3.92833e-026   
     length 0.661721   
     axis -2.50945e-014 -90 -90   XYZ
    dof rx
    limits (0.0 90.0)
  end
  begin
     id 30
     name rthumb
     direction -0.707107 -6.34881e-011 0.707107   
     length 0.950103   
     axis -90 -45 4.80359e-014   XYZ
    dof rx rz
    limits (-45.0 45.0)
           (-45.0 45.0)
  end
:hierarchy
  begin
    root lhipjoint rhipjoint lowerback
    lhipjoint lfemur
    lfemur ltibia
    ltibia lfoot
    lfoot ltoes
    rhipjoint rfemur
    rfemur rtibia
    rtibia rfoot
    rfoot rtoes
    lowerback upperback
    upperback thorax
    thorax lowerneck lclavicle rclavicle
    lowerneck upperneck
    upperneck head
    lclavicle lhumerus
    lhumerus lradius
    lradius lwrist
    lwrist lhand lthumb
    lhand lfingers
    rclavicle rhumerus
    rhumerus rradius
    rradius rwrist
    rwrist rhand rthumb
    rhand rfingers
  end

#!OML:ASF I:\golf\golf\golf 2\Subject 1\2002-09-07\Subject1.ASF
:FULLY-SPECIFIED
:DEGREES
121
root -6.00833 17.8626 0.240292 -91.7792 85.2936 -109.988
lowerback -0.0242346 2.248 -1.13547
upperback 3.65423 3.00807 3.74366
thorax 3.52181 1.44336 4.59995
lowerneck -15.4459 -2.22701 1.44488
upperneck 39.4376 -0.376392 -3.78298
head 16.8779 0.104851 -1.85224
rclavicle 2.06736e-014 5.56597e-015
rhumerus -6.85214 -2.17141 -102.419
rradius 21.4797
rwrist -39.8028
rhand -12.6033 -7.31388
rfingers 7.12502
rthumb 13.4756 -36.8579
lclavicle 2.06736e-014 5.56597e-015
lhumerus -11.2513 -49.2599 110.938
lradius 22.8405
lwrist 31.8334
lhand -4.83251 70.6951
lfingers 7.12502
lthumb -159.046 80.4168
rfemur -29.2143 -0.922998 12.0893
rtibia 23.7159
rfoot -6.71203 -9.87088
rtoes 5.94231
lfemur -30.8547 10.1801 -7.93097
ltibia 27.4026
lfoot -9.84044 -2.07935
ltoes -20.5813
122
root -6.00918 17.8614 0.23867 -92.4605 85.3042 -110.727
lowerback -0.0182156 2.26342 -1.15409
upperback 3.61894 3.0291 3.74686
thorax 3.47881 1.45418 4.61254
lowerneck -15.4048 -2.25049 1.45678
upperneck 39.4098 -0.404176 -3.81194
head 16.8506 0.091771 -1.87079
rclavicle 1.98785e-015 -2.38542e-014
rhumerus -6.82195 -2.45825 -102.46
rradius 21.4703
rwrist -39.4957
rhand -12.8068 -7.27391
rfingers 7.12502
rthumb 13.2794 -36.8309
lclavicle 1.98785e-015 -2.38542e-014
lhumerus -11.2626 -49.2889 110.967
lradius 22.8067
lwrist 31.7041
lhand -5.37874 70.4499
lfingers 7.12502
lthumb -159.571 80.6048
rfemur -29.2949 -0.94856 12.0571
rtibia 23.7824
rfoot -6.58931 -9.92403
rtoes -11.9864
lfemur -30.9426 10.1573 -7.97863
ltibia 27.4003
lfoot -9.85185 -2.10394
ltoes -20.8825
123
root -6.01061 17.8606 0.234334 -93.5147 85.3154 -111.831
lowerback 0.0111235 2.25207 -1.167
upperback 3.58174 3.01447 3.79294
thorax 3.42194 1.44752 4.6647
lowerneck -15.3974 -2.28123 1.33186
upperneck 39.4457 -0.401835 -3.80481
head 16.8701 0.0776102 -1.845
rclavicle -1.27222e-014 -3.33958e-014
rhumerus -6.85963 -2.40272 -102.384
rradius 21.5248
rwrist -39.3579
rhand -12.9465 -7.29684
rfingers 7.12502
rthumb 13.1448 -36.8625
lclavicle -1.27222e-014 -3.33958e-014
lhumerus -11.2858 -49.5568 111.056
lradius 22.8992
lwrist 32.0105
lhand -6.43379 70.3311
lfingers 7.12502
lthumb -160.585 80.6182
rfemur -29.354 -0.987647 12.0033
rtibia 23.8381
rfoot -6.87969 -9.91152
rtoes -15.2057
lfemur -31.0308 10.1066 -8.0398
ltibia 27.4026
lfoot -9.8378 -2.08894
ltoes -21.2315
124
root -6.01109 17.8612 0.231545 -94.9694 85.3679 -113.27
lowerback 0.0484176 2.21158 -1.25468
upperback 3.59727 2.96214 3.8429
thorax 3.41513 1.41855 4.76412
lowerneck -15.4651 -2.28503 1.20284
upperneck 39.5066 -0.356496 -3.80238
head 16.9246 0.0787513 -1.81487
rclavicle -4.77083e-015 -3.81667e-014
rhumerus -6.92371 -1.9115 -102.294
rradius 21.6744
rwrist -39.5835
rhand -13.3657 -7.3566
rfingers 7.12502
rthumb 12.7406 -36.9479
lclavicle -4.77083e-015 -3.81667e-014
lhumerus -11.1816 -49.5914 111.056
lradius 22.886
lwrist 32.0687
lhand -7.02947 70.5762
lfingers 7.12502
lthumb -161.158 80.3164
rfemur -29.3211 -1.00456 11.8898
rtibia 23.8804
rfoot -6.92064 -10.0146
rtoes -15.2759
lfemur -31.0471 9.9815 -8.12447
ltibia 27.4151
lfoot -9.8295 -2.04515
ltoes -21.3504
125
root -6.01154 17.8627 0.229556 -96.2619 85.4361 -114.54
lowerback 0.0832469 2.17876 -1.33751
upperback 3.62277 2.91989 3.84912
thorax 3.42169 1.39462 4.81585
lowerneck -15.5207 -2.27334 1.15468
upperneck 39.5187 -0.31662 -3.81622
head 16.948 0.0853713 -1.80644
rclavicle 2.3059e-014 9.54166e-015
rhumerus -6.8854 -1.73163 -102.299
rradius 21.6733
rwrist -39.6102
rhand -13.7379 -7.34129
rfingers 7.12502
rthumb 12.3818 -36.9546
lclavicle 2.3059e-014 9.54166e-015
lhumerus -11.034 -49.5381 110.955
lradius 22.7862
lwrist 31.8703
lhand -7.01133 70.8214
lfingers 7.12502
lthumb -161.14 80.0729
rfemur -29.2929 -1.14167 11.8082
rtibia 23.922
rfoot -6.8615 -9.98823
rtoes -15.7617
lfemur -31.0557 9.91993 -8.23779
ltibia 27.4338
lfoot -9.84011 -2.12069
ltoes -20.9877
126
root -6.01384 17.8637 0.227014 -97.1685 85.4342 -115.455
lowerback 0.131702 2.16521 -1.29752
upperback 3.61893 2.90165 3.83043
thorax 3.39469 1.3875 4.77078
lowerneck -15.5041 -2.25886 1.13902
upperneck 39.4921 -0.307474 -3.77774
head 16.9299 0.091358 -1.78378
rclavicle 5.28767e-014 9.54166e-015
rhumerus -6.77651 -1.91167 -102.384
rradius 21.5292
rwrist -39.3906
rhand -13.7427 -7.29716
rfingers 7.12502
rthumb 12.3772 -36.9108
lclavicle 5.28767e-014 9.54166e-015
lhumerus -10.9429 -49.5596 110.843
lradius 22.6865
lwrist 31.6789
lhand -6.96854 70.8151
lfingers 7.12502
lthumb -161.099 80.0832
rfemur -29.3278 -1.35142 11.8343
rtibia 23.9835
rfoot -6.86134 -9.87223
rtoes -15.661
lfemur -31.1174 9.92017 -8.2777
ltibia 27.4611
lfoot -9.83394 -2.25849
ltoes -20.4398
127
root -6.01487 17.8615 0.22791 -97.6039 85.4041 -115.909
lowerback 0.127067 2.16492 -1.28868
upperback 3.61266 2.90114 3.83649
thorax 3.39096 1.38761 4.77209
lowerneck -15.4199 -2.24693 1.14233
upperneck 39.4449 -0.295978 -3.76634
head 16.8831 0.0982338 -1.77456
rclavicle 8.74653e-015 -1.82882e-014
rhumerus -6.74316 -1.96612 -102.446
rradius 21.4639
rwrist -39.3033
rhand -13.5601 -7.32189
rfingers 7.12502
rthumb 12.5532 -36.9248
lclavicle 8.74653e-015 -1.82882e-014
lhumerus -10.9014 -49.559 110.783
lradius 22.5843
lwrist 31.4802
lhand -7.02212 70.8351
lfingers 7.12502
lthumb -161.15 80.0582
rfemur -29.3828 -1.45233 11.8749
rtibia 24.056
rfoot -6.97187 -9.81546
rtoes -14.9956
lfemur -31.1988 10.0197 -8.29775
ltibia 27.5097
lfoot -9.87075 -2.36311
ltoes -20.8125
128
root -6.01556 17.8577 0.229608 -97.9158 85.3824 -116.234
lowerback 0.108622 2.17781 -1.30999
upperback 3.61401 2.91863 3.86855
thorax 3.39871 1.39539 4.81901
lowerneck -15.4135 -2.26229 1.10372
upperneck 39.4977 -0.285528 -3.78656
head 16.9112 0.09716 -1.77545
rclavicle -2.38542e-014 -1.90833e-014
rhumerus -6.72631 -2.09346 -102.423
rradius 21.395
rwrist -39.1945
rhand -13.4427 -7.27892
rfingers 7.12502
rthumb 12.6665 -36.8748
lclavicle -2.38542e-014 -1.90833e-014
lhumerus -10.8708 -49.6424 110.798
lradius 22.5087
lwrist 31.3417
lhand -6.99976 70.9515
lfingers 7.12502
lthumb -161.129 79.9439
rfemur -29.435 -1.49874 11.8962
rtibia 24.1369
rfoot -7.09761 -9.77572
rtoes -14.5555
lfemur -31.2693 10.1337 -8.32594
ltibia 27.5684
lfoot -9.90209 -2.46469
ltoes -21.1637
129
root -6.01796 17.8576 0.228415 -99.1743 85.3691 -117.493
lowerback 0.132518 2.18094 -1.26085
upperback 3.61377 2.92244 3.86399
thorax 3.38709 1.39919 4.78534
lowerneck -15.4665 -2.29935 1.03787
upperneck 39.6082 -0.319598 -3.74284
head 16.9848 0.0838037 -1.75298
rclavicle 4.21423e-014 9.38264e-014
rhumerus -6.69435 -2.16997 -102.395
rradius 21.3413
rwrist -39.3034
rhand -13.5299 -7.1256
rfingers 7.12502
rthumb 12.5823 -36.7267
lclavicle 4.21423e-014 9.38264e-014
lhumerus -10.8731 -49.9602 110.798
lradius 22.5226
lwrist 31.3116
lhand -6.8616 70.9717
lfingers 7.12502
lthumb -160.996 79.9367
rfemur -29.4665 -1.53133 11.8652
rtibia 24.2423
rfoot -7.09463 -9.86497
rtoes -13.1702
lfemur -31.3368 10.0365 -8.33474
ltibia 27.6204
lfoot -9.88332 -2.53232
ltoes -20.7843
130
root -6.02039 17.8577 0.225468 -100.824 85.3342 -119.128
lowerback 0.168335 2.16498 -1.16944
upperback 3.62022 2.90026 3.84517
thorax 3.38063 1.3913 4.71205
lowerneck -15.4868 -2.32299 1.02924
upperneck 39.6527 -0.348776 -3.73298
head 17.0133 0.074032 -1.75336
rclavicle 2.78299e-014 1.98785e-014
rhumerus -6.67786 -2.1467 -102.409
rradius 21.3138
rwrist -39.4591
rhand -13.5661 -7.05032
rfingers 7.12502
rthumb 12.5475 -36.6536
lclavicle 2.78299e-014 1.98785e-014
lhumerus -10.8865 -50.2806 110.723
lradius 22.5624
lwrist 31.1807
lhand -6.84177 70.8989
lfingers 7.12502
lthumb -160.977 80.0113
rfemur -29.4761 -1.65104 11.8611
rtibia 24.3563
rfoot -7.14799 -9.9552
rtoes -9.32872
lfemur -31.398 9.92991 -8.34835
ltibia 27.6754
lfoot -9.92194 -2.60594
ltoes -20.8356
131
root -6.02185 17.8537 0.224258 -101.82 85.2963 -120.101
lowerback 0.192661 2.18314 -1.09613
upperback 3.64952 2.92395 3.83248
thorax 3.39923 1.40522 4.65777
lowerneck -15.581 -2.35857 1.05998
upperneck 39.696 -0.395529 -3.76917
head 17.0587 0.055332 -1.78618
rclavicle -2.38542e-014 9.54166e-015
rhumerus -6.63872 -2.1779 -102.442
rradius 21.3545
rwrist -39.6091
rhand -13.6538 -7.22077
rfingers 7.12502
rthumb 12.4629 -36.8292
lclavicle -2.38542e-014 9.54166e-015
lhumerus -10.8473 -50.5032 110.65
lradius 22.5125
lwrist 30.925
lhand -7.01804 70.8307
lfingers 7.12502
lthumb -161.147 80.0629
rfemur -29.4939 -1.82725 11.9092
rtibia 24.4555
rfoot -7.23462 -9.90783
rtoes -6.56643
lfemur -31.4386 9.98192 -8.38645
ltibia 27.7241
lfoot -9.98624 -2.67303
ltoes -21.4981
132
root -6.02304 17.8503 0.224469 -102.76 85.267 -121.043
lowerback 0.181013 2.19801 -1.02371
upperback 3.67675 2.94276 3.79944
thorax 3.43744 1.41636 4.58437
lowerneck -15.672 -2.38442 1.12031
upperneck 39.7278 -0.442897 -3.79903
head 17.0965 0.0410919 -1.82148
rclavicle -2.14687e-014 2.62396e-014
rhumerus -6.65872 -1.87647 -102.492
rradius 21.5597
rwrist -40.159
rhand -13.8895 -7.4681
rfingers 7.12502
rthumb 12.2357 -37.0902
lclavicle -2.14687e-014 2.62396e-014
lhumerus -10.7731 -50.7861 110.541
lradius 22.4658
lwrist 30.8497
lhand -7.14297 70.8467
lfingers 7.12502
lthumb -161.267 80.0353
rfemur -29.542 -1.93149 11.9364
rtibia 24.5542
rfoot -7.18124 -9.91845
rtoes -6.9284
lfemur -31.4968 10.0226 -8.42595
ltibia 27.7582
lfoot -9.99686 -2.71802
ltoes -22.0954
133
root -6.02463 17.8515 0.225244 -103.91 85.2875 -122.223
lowerback 0.145097 2.17851 -1.03997
upperback 3.67941 2.91648 3.77266
thorax 3.46327 1.40227 4.56691
lowerneck -15.6643 -2.37867 1.13512
upperneck 39.703 -0.437675 -3.80939
head 17.0808 0.0432738 -1.82716
rclavicle 1.47101e-014 3.97569e-015
rhumerus -6.75094 -1.39548 -102.523
rradius 21.7886
rwrist -40.7931
rhand -14.0173 -7.51482
rfingers 7.12502
rthumb 12.1124 -37.1442
lclavicle 1.47101e-014 3.97569e-015
lhumerus -10.6849 -50.9258 110.418
lradius 22.4027
lwrist 30.7123
lhand -7.05861 70.7882
lfingers 7.12502
lthumb -161.186 80.1017
rfemur -29.6258 -1.94632 11.8749
rtibia 24.6796
rfoot -7.18252 -10.0527
rtoes -7.37992
lfemur -31.5802 9.96529 -8.4877
ltibia 27.7916
lfoot -9.9862 -2.80078
ltoes -21.8901
